<?xml version="1.0" standalone="no"?>
<!DOCTYPE svg PUBLIC "-//W3C//DTD SVG 20010904//EN"
 "http://www.w3.org/TR/2001/REC-SVG-20010904/DTD/svg10.dtd">
<svg version="1.0" xmlns="http://www.w3.org/2000/svg"
 width="307.000000pt" height="369.000000pt" viewBox="0 0 307.000000 369.000000"
 preserveAspectRatio="xMidYMid meet">

<g transform="translate(0.000000,369.000000) scale(0.100000,-0.100000)"
fill="#cccccc" stroke="none">
<path d="M310 3235 c0 -278 8 -314 92 -398 l48 -48 -41 -42 c-131 -133 -199
-302 -200 -494 0 -178 37 -296 136 -433 39 -53 149 -160 164 -160 7 0 11 -33
11 -90 0 -49 -2 -90 -4 -90 -2 0 -60 28 -128 62 -67 33 -145 72 -171 85 l-48
24 3 -284 3 -283 37 -75 c48 -96 105 -153 219 -214 92 -50 92 -50 105 -101 33
-131 107 -241 207 -305 90 -58 168 -79 337 -89 207 -12 310 -48 418 -145 l49
-44 44 45 c85 87 249 144 414 144 96 0 214 24 285 58 123 60 232 201 260 336
l11 54 100 53 c144 75 218 167 248 307 11 52 16 542 6 542 -3 0 -82 -38 -175
-85 l-170 -85 0 90 c0 52 4 90 10 90 5 0 43 33 83 73 85 84 144 179 183 292
25 72 28 94 28 220 0 128 -2 147 -27 220 -34 96 -93 200 -148 258 -23 23 -45
48 -51 54 -7 9 2 25 35 57 80 81 82 87 85 379 l3 258 -558 -280 c-358 -179
-567 -289 -584 -307 -38 -42 -59 -78 -74 -126 l-13 -43 -7 30 c-13 50 -46 107
-81 142 -22 21 -219 125 -566 299 -292 146 -542 270 -555 275 l-23 9 0 -235z
m694 -485 c156 -23 307 -134 378 -276 126 -254 27 -551 -228 -684 -78 -40
-151 -53 -267 -48 -89 5 -104 8 -180 46 -186 92 -287 253 -287 456 0 121 24
200 89 292 71 101 162 167 271 198 95 26 132 29 224 16z m1291 -12 c77 -19
173 -78 234 -144 192 -205 188 -508 -9 -704 -108 -108 -208 -150 -361 -150
-299 0 -524 239 -506 539 19 322 323 540 642 459z m-678 -718 c73 -44 81 -120
25 -230 -47 -91 -90 -160 -100 -160 -10 1 -105 165 -125 218 -10 23 -17 50
-17 59 0 31 39 98 67 115 38 24 110 23 150 -2z m-155 -1187 c20 -21 48 -63 62
-93 14 -32 25 -47 26 -35 1 32 57 121 92 148 36 27 1111 567 1129 567 7 0 9
-49 7 -152 -3 -135 -6 -158 -26 -199 -43 -88 -75 -111 -370 -256 -152 -76
-298 -150 -324 -165 -27 -15 -48 -26 -48 -23 0 2 -103 -48 -230 -111 -126 -63
-234 -114 -240 -114 -6 0 -261 126 -568 279 -351 176 -567 290 -583 308 -15
15 -39 52 -54 80 -25 48 -27 65 -31 195 -3 78 -2 148 0 155 4 9 170 -69 563
-266 439 -219 566 -287 595 -318z"/>
<path d="M845 2236 c-72 -32 -116 -101 -117 -180 -2 -192 222 -277 349 -133
86 98 56 250 -60 306 -50 24 -126 27 -172 7z"/>
<path d="M2075 2233 c-73 -38 -115 -105 -115 -183 0 -150 157 -245 290 -177
147 74 144 291 -5 358 -49 23 -130 24 -170 2z"/>
</g>
</svg>
